<?xml version="1.0" encoding="UTF-8" standalone="no"?>
<svg
   width="61"
   height="61"
   viewBox="0 0 61 61"
   fill="none"
   version="1.1"
   id="svg11"
   sodipodi:docname="homepage-about-icon.svg"
   inkscape:version="1.2.2 (732a01da63, 2022-12-09)"
   xmlns:inkscape="http://www.inkscape.org/namespaces/inkscape"
   xmlns:sodipodi="http://sodipodi.sourceforge.net/DTD/sodipodi-0.dtd"
   xmlns="http://www.w3.org/2000/svg"
   xmlns:svg="http://www.w3.org/2000/svg">
  <defs
     id="defs15">
    <inkscape:path-effect
       effect="offset"
       id="path-effect2503"
       is_visible="true"
       lpeversion="1.2"
       linejoin_type="miter"
       unit="mm"
       offset="0.14"
       miter_limit="3"
       attempt_force_join="false"
       update_on_knot_move="true" />
  </defs>
  <sodipodi:namedview
     id="namedview13"
     pagecolor="#ffffff"
     bordercolor="#000000"
     borderopacity="0.25"
     inkscape:showpageshadow="2"
     inkscape:pageopacity="0.0"
     inkscape:pagecheckerboard="0"
     inkscape:deskcolor="#d1d1d1"
     showgrid="false"
     inkscape:zoom="10"
     inkscape:cx="26.25"
     inkscape:cy="27.3"
     inkscape:window-width="1920"
     inkscape:window-height="1009"
     inkscape:window-x="-8"
     inkscape:window-y="-8"
     inkscape:window-maximized="1"
     inkscape:current-layer="svg11" />
  <circle
     cx="30.5"
     cy="30.5"
     r="30"
     fill="#F2E7FE"
     id="circle2" />
  <mask
     id="mask0_719_10612"
     style="mask-type:alpha"
     maskUnits="userSpaceOnUse"
     x="10"
     y="10"
     width="41"
     height="41">
    <rect
       x="10.582"
       y="10.5"
       width="40"
       height="40"
       fill="#D9D9D9"
       id="rect4" />
  </mask>
  <g
     inkscape:groupmode="layer"
     id="layer1"
     inkscape:label="Layer 1" />
  <g
     id="g3656"
     transform="matrix(0.33186305,0,0,0.33186305,10.110334,10.1105)"
     style="fill:#8b69d4;fill-opacity:1">
    <path
       fill-rule="evenodd"
       clip-rule="evenodd"
       d="m 61.44,0 c 33.926,0 61.44,27.514 61.44,61.44 0,33.926 -27.514,61.439 -61.44,61.439 C 27.513,122.88 0,95.366 0,61.44 0,27.514 27.513,0 61.44,0 Z M 79.42,98.215 H 43.46 v -6.053 h 6.757 V 55.202 H 43.46 v -4.816 h 16.808 c 4.245,0 8.422,-0.51 12.549,-1.551 v 43.328 h 6.604 v 6.052 z M 63.859,21.078 c 2.785,0 4.975,0.805 6.571,2.396 1.579,1.59 2.377,3.771 2.377,6.581 0,2.848 -1.358,5.381 -4.093,7.601 -2.751,2.22 -5.941,3.338 -9.577,3.338 -2.733,0 -4.905,-0.765 -6.569,-2.297 -1.665,-1.551 -2.497,-3.556 -2.497,-6.05 0,-3.143 1.358,-5.853 4.059,-8.152 2.7,-2.276 5.942,-3.417 9.729,-3.417 z"
       id="path3654"
       style="fill:#8b69d4;fill-opacity:1" />
  </g>
</svg>
