<?xml version="1.0" encoding="UTF-8" standalone="no"?>
<svg
   width="61"
   height="61"
   viewBox="0 0 61 61"
   fill="none"
   version="1.1"
   id="svg11"
   sodipodi:docname="homepage-visitors-icon.svg"
   inkscape:version="1.2.2 (732a01da63, 2022-12-09)"
   xmlns:inkscape="http://www.inkscape.org/namespaces/inkscape"
   xmlns:sodipodi="http://sodipodi.sourceforge.net/DTD/sodipodi-0.dtd"
   xmlns="http://www.w3.org/2000/svg"
   xmlns:svg="http://www.w3.org/2000/svg">
  <defs
     id="defs15">
    <inkscape:path-effect
       effect="offset"
       id="path-effect2503"
       is_visible="true"
       lpeversion="1.2"
       linejoin_type="miter"
       unit="mm"
       offset="0.14"
       miter_limit="3"
       attempt_force_join="false"
       update_on_knot_move="true" />
  </defs>
  <sodipodi:namedview
     id="namedview13"
     pagecolor="#ffffff"
     bordercolor="#000000"
     borderopacity="0.25"
     inkscape:showpageshadow="2"
     inkscape:pageopacity="0.0"
     inkscape:pagecheckerboard="0"
     inkscape:deskcolor="#d1d1d1"
     showgrid="false"
     inkscape:zoom="10"
     inkscape:cx="15.55"
     inkscape:cy="59.3"
     inkscape:window-width="1920"
     inkscape:window-height="1009"
     inkscape:window-x="-8"
     inkscape:window-y="-8"
     inkscape:window-maximized="1"
     inkscape:current-layer="svg11" />
  <circle
     cx="30.5"
     cy="30.5"
     r="30"
     fill="#F2E7FE"
     id="circle2" />
  <mask
     id="mask0_719_10612"
     style="mask-type:alpha"
     maskUnits="userSpaceOnUse"
     x="10"
     y="10"
     width="41"
     height="41">
    <rect
       x="10.582"
       y="10.5"
       width="40"
       height="40"
       fill="#D9D9D9"
       id="rect4" />
  </mask>
  <g
     inkscape:groupmode="layer"
     id="layer1"
     inkscape:label="Layer 1" />
  <g
     id="_341224960"
     style="clip-rule:evenodd;fill:#8b69d4;fill-opacity:1;fill-rule:evenodd;image-rendering:optimizeQuality;shape-rendering:geometricPrecision;text-rendering:geometricPrecision"
     transform="matrix(0.0303825,0,0,0.0303825,-0.61164658,-0.61167392)">
    <path
       id="_341225560"
       class="fil0"
       d="m 1024,892.644 c 102.534,0 195.729,41.9244 263.271,109.468 67.5438,67.5438 109.468,160.739 109.468,263.273 v 183.706 c 0,52.0158 -21.2575,99.2824 -55.5036,133.53 -34.2485,34.2461 -81.515,55.5036 -133.531,55.5036 h -367.412 c -52.0158,0 -99.2824,-21.2575 -133.53,-55.5036 -34.2461,-34.2473 -55.5036,-81.5138 -55.5036,-133.53 v -183.706 c 0,-102.534 41.9244,-195.729 109.468,-263.273 67.5426,-67.5438 160.738,-109.468 263.271,-109.468 z"
       style="fill:#8b69d4;fill-opacity:1;fill-rule:nonzero" />
    <path
       id="_341225296"
       class="fil0"
       d="m 1024,409.875 c 64.8095,0 123.488,26.2725 165.963,68.7485 42.476,42.4748 68.7485,101.153 68.7485,165.963 0,64.8083 -26.2725,123.487 -68.7485,165.962 -42.4748,42.476 -101.153,68.7485 -165.963,68.7485 -64.8095,0 -123.488,-26.2725 -165.963,-68.7485 -42.476,-42.4748 -68.7485,-101.153 -68.7485,-165.962 0,-64.8095 26.2725,-123.488 68.7485,-165.963 C 900.5118,436.1475 959.19,409.875 1024,409.875 Z"
       style="fill:#8b69d4;fill-opacity:1;fill-rule:nonzero" />
  </g>
  <g
     id="_341224840"
     style="clip-rule:evenodd;fill:#8b69d4;fill-opacity:1;fill-rule:evenodd;image-rendering:optimizeQuality;shape-rendering:geometricPrecision;text-rendering:geometricPrecision"
     transform="matrix(0.0303825,0,0,0.0303825,-0.61167878,-0.72145197)">
    <g
       id="g2839"
       style="fill:#8b69d4;fill-opacity:1">
      <path
         id="_341225272"
         class="fil0"
         d="m 1504,924.09 c 80.8087,0 154.257,33.0414 207.488,86.2737 53.2323,53.2323 86.2737,126.68 86.2737,207.488 v 144.782 c 0,40.9949 -16.7528,78.2457 -43.7433,105.236 -26.9918,26.9906 -64.2426,43.7433 -105.237,43.7433 h -229.097 c 5.9516,-20.0906 9.0555,-41.1166 9.0555,-62.5229 v -183.706 c 0,-102.917 -39.1807,-200.967 -109.114,-275.829 50.4922,-40.8945 114.696,-65.465 184.375,-65.465 z"
         style="fill:#8b69d4;fill-opacity:1;fill-rule:nonzero" />
      <path
         id="_341225344"
         class="fil0"
         d="m 1504,543.613 c 51.0768,0 97.3229,20.7059 130.798,54.1819 33.476,33.4748 54.1819,79.7197 54.1819,130.798 0,51.0756 -20.7059,97.3217 -54.1819,130.797 -33.4748,33.476 -79.7209,54.1808 -130.798,54.1808 -51.0768,0 -97.3229,-20.7047 -130.798,-54.1808 -33.476,-33.4748 -54.1819,-79.7209 -54.1819,-130.797 0,-51.078 20.7059,-97.3229 54.1819,-130.798 33.4748,-33.476 79.7209,-54.1819 130.798,-54.1819 z"
         style="fill:#8b69d4;fill-opacity:1;fill-rule:nonzero" />
    </g>
    <g
       id="g2843"
       style="fill:#8b69d4;fill-opacity:1">
      <path
         id="_341225128"
         class="fil0"
         d="m 544,924.09 c 69.6792,0 133.883,24.5705 184.375,65.465 -69.9331,74.8619 -109.114,172.912 -109.114,275.829 v 183.706 c 0,21.4063 3.10394,42.4323 9.05552,62.5229 h -229.099 c -40.9937,0 -78.2457,-16.7528 -105.236,-43.7433 -26.9906,-26.9906 -43.7433,-64.2414 -43.7433,-105.236 v -144.782 c 0,-80.8075 33.0414,-154.256 86.2737,-207.488 53.2311,-53.2323 126.679,-86.2737 207.488,-86.2737 z"
         style="fill:#8b69d4;fill-opacity:1;fill-rule:nonzero" />
      <path
         id="_341224768"
         class="fil0"
         d="m 544,543.613 c 51.0768,0 97.3229,20.7059 130.798,54.1819 33.476,33.4748 54.1819,79.7197 54.1819,130.798 0,51.0756 -20.7059,97.3217 -54.1819,130.797 -33.4748,33.476 -79.7209,54.1808 -130.798,54.1808 -51.0768,0 -97.3229,-20.7047 -130.798,-54.1808 -33.476,-33.4748 -54.1819,-79.7209 -54.1819,-130.797 0,-51.078 20.7059,-97.3229 54.1819,-130.798 C 446.6768,564.3189 492.9229,543.613 544,543.613 Z"
         style="fill:#8b69d4;fill-opacity:1;fill-rule:nonzero" />
    </g>
  </g>
</svg>
