<?xml version="1.0" encoding="UTF-8" standalone="no"?>
<svg
   width="61"
   height="61"
   viewBox="0 0 61 61"
   fill="none"
   version="1.1"
   id="svg26"
   sodipodi:docname="homepage-book-icon.svg"
   inkscape:version="1.2.2 (732a01da63, 2022-12-09)"
   xmlns:inkscape="http://www.inkscape.org/namespaces/inkscape"
   xmlns:sodipodi="http://sodipodi.sourceforge.net/DTD/sodipodi-0.dtd"
   xmlns="http://www.w3.org/2000/svg"
   xmlns:svg="http://www.w3.org/2000/svg">
  <defs
     id="defs30" />
  <sodipodi:namedview
     id="namedview28"
     pagecolor="#ffffff"
     bordercolor="#000000"
     borderopacity="0.25"
     inkscape:showpageshadow="2"
     inkscape:pageopacity="0.0"
     inkscape:pagecheckerboard="0"
     inkscape:deskcolor="#d1d1d1"
     showgrid="false"
     inkscape:zoom="13.590164"
     inkscape:cx="17.696622"
     inkscape:cy="30.683956"
     inkscape:window-width="1920"
     inkscape:window-height="1009"
     inkscape:window-x="-8"
     inkscape:window-y="-8"
     inkscape:window-maximized="1"
     inkscape:current-layer="g267-9" />
  <circle
     cx="30.5"
     cy="30.5"
     r="30"
     fill="#F2E7FE"
     id="circle17" />
  <mask
     id="mask0_719_10612"
     style="mask-type:alpha"
     maskUnits="userSpaceOnUse"
     x="10"
     y="10"
     width="41"
     height="41">
    <rect
       x="10.582"
       y="10.5"
       width="40"
       height="40"
       fill="#D9D9D9"
       id="rect19" />
  </mask>
  <g
     id="g267">
    <path
       class="st0"
       d="M 64.48,0.38 H 82.9 c 1.85,0 3.36,1.51 3.36,3.36 V 18.58 H 61.12 V 3.74 c 0,-1.85 1.51,-3.36 3.36,-3.36 z M 86.27,27.65 V 72.84 H 61.12 V 27.65 Z m 0,54.27 v 13.8 c 0,1.85 -1.51,3.36 -3.36,3.36 H 64.48 c -1.85,0 -3.36,-1.51 -3.36,-3.36 v -13.8 z"
       id="path261"
       style="clip-rule:evenodd;fill-rule:evenodd" />
    <path
       class="st0"
       d="m 101.09,0.38 h 18.42 c 1.85,0 3.36,1.51 3.36,3.36 V 18.58 H 122.85 97.73 V 3.74 c 0,-1.85 1.52,-3.36 3.36,-3.36 z m 21.79,27.27 V 72.84 H 97.73 V 27.65 h 25.13 z m 0,54.27 v 13.8 c 0,1.85 -1.51,3.36 -3.36,3.36 H 101.1 c -1.85,0 -3.36,-1.51 -3.36,-3.36 v -13.8 z"
       id="path263"
       style="clip-rule:evenodd;fill-rule:evenodd" />
    <path
       class="st0"
       d="M 35.95,0.2 53.26,6.5 C 55,7.13 55.9,9.07 55.27,10.81 L 50.2,24.75 26.57,16.15 31.64,2.21 C 32.28,0.47 34.22,-0.43 35.95,0.2 Z M 47.1,33.28 31.65,75.75 8.02,67.15 23.47,24.69 Z m -18.55,51 -4.72,12.96 c -0.63,1.74 -2.57,2.64 -4.31,2.01 L 2.21,92.95 C 0.47,92.32 -0.43,90.38 0.2,88.64 L 4.92,75.68 Z"
       id="path265"
       style="clip-rule:evenodd;fill-rule:evenodd" />
  </g>
  <g
     inkscape:groupmode="layer"
     id="layer1"
     inkscape:label="Layer 1">
    <g
       id="g267-9"
       transform="matrix(0.3101687,0,0,0.3101687,11.443397,15.076861)"
       style="fill:#8b69d4;fill-opacity:1">
      <path
         class="st0"
         d="M 64.48,0.38 H 82.9 c 1.85,0 3.36,1.51 3.36,3.36 V 18.58 H 61.12 V 3.74 c 0,-1.85 1.51,-3.36 3.36,-3.36 z M 86.27,27.65 V 72.84 H 61.12 V 27.65 Z m 0,54.27 v 13.8 c 0,1.85 -1.51,3.36 -3.36,3.36 H 64.48 c -1.85,0 -3.36,-1.51 -3.36,-3.36 v -13.8 z"
         id="path261-7"
         style="clip-rule:evenodd;fill:#8b69d4;fill-opacity:1;fill-rule:evenodd" />
      <path
         class="st0"
         d="m 101.09,0.38 h 18.42 c 1.85,0 3.36,1.51 3.36,3.36 V 18.58 H 122.85 97.73 V 3.74 c 0,-1.85 1.52,-3.36 3.36,-3.36 z m 21.79,27.27 V 72.84 H 97.73 V 27.65 h 25.13 z m 0,54.27 v 13.8 c 0,1.85 -1.51,3.36 -3.36,3.36 H 101.1 c -1.85,0 -3.36,-1.51 -3.36,-3.36 v -13.8 z"
         id="path263-9"
         style="clip-rule:evenodd;fill:#8b69d4;fill-opacity:1;fill-rule:evenodd" />
      <path
         class="st0"
         d="M 35.95,0.2 53.26,6.5 C 55,7.13 55.9,9.07 55.27,10.81 L 50.2,24.75 26.57,16.15 31.64,2.21 C 32.28,0.47 34.22,-0.43 35.95,0.2 Z M 47.1,33.28 31.65,75.75 8.02,67.15 23.47,24.69 Z m -18.55,51 -4.72,12.96 c -0.63,1.74 -2.57,2.64 -4.31,2.01 L 2.21,92.95 C 0.47,92.32 -0.43,90.38 0.2,88.64 L 4.92,75.68 Z"
         id="path265-8"
         style="clip-rule:evenodd;fill:#8b69d4;fill-opacity:1;fill-rule:evenodd" />
    </g>
  </g>
</svg>
